<svg width="920" height="680" viewBox="0 0 920 680" fill="none" xmlns="http://www.w3.org/2000/svg">
<defs>
  <filter id="shadow" x="0" y="0" width="920" height="680" filterUnits="userSpaceOnUse">
    <feDropShadow dx="0" dy="32" stdDeviation="24" flood-color="#4E3B3B" flood-opacity=".22"/>
  </filter>
  <filter id="paperNoise" x="0" y="0" width="920" height="680" filterUnits="userSpaceOnUse">
    <feTurbulence type="fractalNoise" baseFrequency=".72" numOctaves="4" stitchTiles="stitch"/>
    <feColorMatrix type="saturate" values="0"/>
    <feComponentTransfer><feFuncA type="table" tableValues="0 .06"/></feComponentTransfer>
  </filter>
  <linearGradient id="paper" x1="170" y1="160" x2="735" y2="600" gradientUnits="userSpaceOnUse">
    <stop stop-color="#FFFDF9"/>
    <stop offset=".44" stop-color="#FFF4F0"/>
    <stop offset="1" stop-color="#F2DEE1"/>
  </linearGradient>
  <linearGradient id="inside" x1="460" y1="174" x2="460" y2="590" gradientUnits="userSpaceOnUse">
    <stop stop-color="#E8B8C7"/>
    <stop offset=".64" stop-color="#F7DDE2"/>
    <stop offset="1" stop-color="#FFF4F2"/>
  </linearGradient>
  <radialGradient id="glow" cx="0" cy="0" r="1" gradientUnits="userSpaceOnUse" gradientTransform="translate(300 210) rotate(55) scale(360)">
    <stop stop-color="white" stop-opacity=".88"/>
    <stop offset="1" stop-color="white" stop-opacity="0"/>
  </radialGradient>
</defs>
<ellipse cx="460" cy="604" rx="264" ry="42" fill="#4E3B3B" opacity=".13"/>
<g filter="url(#shadow)">
  <path d="M168 252 C192 194 239 172 295 172 H625 C681 172 728 194 752 252 L752 546 C752 585 721 616 682 616 H238 C199 616 168 585 168 546 Z" fill="url(#inside)" stroke="#D7BD70" stroke-width="2.7"/>
  <path d="M168 256 L460 470 L752 256" stroke="#C8A84E" stroke-opacity=".34" stroke-width="2.3"/>
  <path d="M168 256 L460 492 L752 256 L752 546 C752 585 721 616 682 616 H238 C199 616 168 585 168 546 Z" fill="url(#paper)" stroke="#D7BD70" stroke-width="2.8"/>
  <path d="M168 256 L460 492 L752 256 L752 546 C752 585 721 616 682 616 H238 C199 616 168 585 168 546 Z" fill="white" opacity=".18" filter="url(#paperNoise)"/>
  <path d="M172 545 L380 370" stroke="#C8A84E" stroke-opacity=".30" stroke-width="2.3"/>
  <path d="M748 545 L540 370" stroke="#C8A84E" stroke-opacity=".30" stroke-width="2.3"/>
  <path d="M168 256 C255 320 357 405 460 492 C563 405 665 320 752 256" stroke="white" stroke-opacity=".38" stroke-width="2.6" fill="none"/>
  <path d="M168 256 L460 492 L752 256 L752 546 C752 585 721 616 682 616 H238 C199 616 168 585 168 546 Z" fill="url(#glow)" opacity=".44"/>
</g>
</svg>