<svg width="280" height="280" viewBox="0 0 280 280" fill="none" xmlns="http://www.w3.org/2000/svg">
<g opacity=".88" transform="translate(25 6) rotate(18 120 120)">
  <path d="M58 38 C88 2 137 12 142 59 C147 104 93 123 64 89 C33 54 25 68 58 38Z" fill="#DCCEF8"/>
  <path d="M105 86 C143 55 192 82 174 128 C157 177 95 162 88 120" fill="#E8B8C7"/>
  <path d="M118 158 C158 149 195 181 165 218 C138 252 86 224 98 181" fill="#AFC9B0" opacity=".82"/>
  <path d="M48 158 C17 174 12 214 49 224 C84 235 101 190 75 171" fill="#F28C8C" opacity=".62"/>
  <circle cx="102" cy="96" r="13" fill="white" opacity=".72"/>
  <path d="M145 156 C190 172 219 210 230 252" stroke="#AFC9B0" stroke-width="8" stroke-linecap="round" opacity=".52"/>
  <path d="M86 151 C69 190 56 220 28 249" stroke="#AFC9B0" stroke-width="7" stroke-linecap="round" opacity=".45"/>
</g>
</svg>